# xmcd
#
# Track frame offsets:
#	183
#	15723
#	27560
#	41483
#	58823
#	73120
#	89585
#	104553
#	116758
#	129295
#
# Disc length: 1950 seconds
#
# Revision: 1
# Processed by: cddbd v1.5PL3 Copyright (c) Steve Scherf et al.
# Submitted via: audiograbber 1.82.02
#
DISCID=8f079c0a
DTITLE=Ann Murray - let's keep It That Way
DYEAR=1978
DGENRE=Country
TTITLE0=let's keep It That Way
TTITLE1=Walk Right Back
TTITLE2=Just to Feel this Love From You
TTITLE3=We Don't Make Love Anymore
TTITLE4=I Still Wish You Th e Very Best For You
TTITLE5=You Need Me
TTITLE6=You're A Part Of Me
TTITLE7=Hold Me Tight
TTITLE8=Tennassee Waltz
TTITLE9=There's Always A Goodbye
EXTD=
EXTT0=
EXTT1=
EXTT2=
EXTT3=
EXTT4=
EXTT5=
EXTT6=
EXTT7=
EXTT8=
EXTT9=
PLAYORDER=
